<svg width="16" height="16" viewBox="0 0 16 16" fill="none" xmlns="http://www.w3.org/2000/svg">
<path fill-rule="evenodd" clip-rule="evenodd" d="M2.304 13.4159C2.08117 13.1933 1.9044 12.9289 1.7838 12.6379C1.6632 12.3469 1.60112 12.0349 1.60112 11.7199C1.60112 11.4049 1.6632 11.093 1.7838 10.802C1.9044 10.511 2.08117 10.2466 2.304 10.0239L4.0144 8.31433C4.07459 8.25249 4.118 8.17633 4.14054 8.09303C4.16308 8.00974 4.164 7.92207 4.1432 7.83833C3.95649 7.04572 3.95154 6.22114 4.12871 5.42634C4.30588 4.63155 4.66059 3.88714 5.16626 3.24888C5.67193 2.61061 6.31546 2.09503 7.04866 1.74075C7.78185 1.38647 8.5857 1.20267 9.4 1.20313C10.0632 1.20313 10.6976 1.32233 11.284 1.54073C11.588 1.65273 11.6496 2.03913 11.42 2.26873L9.34 4.35833C9.25074 4.44832 9.2007 4.56997 9.2008 4.69673V6.32313C9.2008 6.45043 9.25137 6.57252 9.34139 6.66254C9.43141 6.75255 9.5535 6.80313 9.6808 6.80313H11.304C11.4309 6.80301 11.5525 6.75268 11.6424 6.66313L13.7352 4.58073C13.9648 4.35193 14.3504 4.41273 14.4632 4.71673C14.8031 5.63127 14.8888 6.62085 14.7111 7.5802C14.5334 8.53956 14.099 9.43282 13.4541 10.165C12.8092 10.8971 11.9779 11.4408 11.0487 11.7381C10.1194 12.0354 9.12693 12.0753 8.1768 11.8535C8.09335 11.8332 8.00609 11.8344 7.92324 11.8571C7.84039 11.8798 7.76467 11.9231 7.7032 11.9831L5.9832 13.6991C5.53276 14.149 4.92219 14.4016 4.2856 14.4016C3.64901 14.4016 3.03844 14.149 2.588 13.6991L2.304 13.4151V13.4159ZM9.4 10.7935C9.967 10.7939 10.5282 10.6793 11.0497 10.4568C11.5712 10.2343 12.0423 9.90844 12.4344 9.4989C12.8265 9.08935 13.1316 8.60461 13.3313 8.07391C13.5309 7.54322 13.621 6.97758 13.596 6.41113L12.488 7.51513C12.1732 7.82773 11.7476 8.00316 11.304 8.00313H9.68C9.23444 8.00313 8.80712 7.82613 8.49206 7.51107C8.177 7.196 8 6.76869 8 6.32313V4.69673C8.00018 4.2526 8.17621 3.82662 8.4896 3.51193L9.5888 2.40793C8.94033 2.3784 8.29384 2.49968 7.70016 2.76223C7.10647 3.02478 6.58177 3.42145 6.1673 3.92105C5.75282 4.42065 5.45987 5.00958 5.31146 5.64153C5.16305 6.27349 5.16324 6.93125 5.312 7.56313C5.37985 7.8459 5.3743 8.14131 5.29589 8.42134C5.21749 8.70136 5.06882 8.9567 4.864 9.16313L3.152 10.8719C3.04068 10.9831 2.95238 11.1152 2.89213 11.2606C2.83188 11.406 2.80086 11.5618 2.80086 11.7191C2.80086 11.8765 2.83188 12.0323 2.89213 12.1777C2.95238 12.323 3.04068 12.4551 3.152 12.5663L3.4368 12.8503C3.66224 13.0754 3.96781 13.2019 4.2864 13.2019C4.60499 13.2019 4.91056 13.0754 5.136 12.8503L6.8552 11.1335C7.06067 10.9297 7.31458 10.7816 7.59308 10.7029C7.87157 10.6243 8.16549 10.6177 8.4472 10.6839C8.7528 10.7551 9.0712 10.7927 9.4008 10.7927L9.4 10.7935Z" fill="black" style="fill:black;fill-opacity:1;"/>
</svg>
