<svg width="16" height="16" viewBox="0 0 16 16" fill="none" xmlns="http://www.w3.org/2000/svg">
<path d="M8.88702 4.72399C8.53002 5.77299 8.04702 6.83199 7.44002 7.43999C6.83202 8.04699 5.77302 8.52899 4.72402 8.88699C4.45915 8.97793 4.19207 9.06229 3.92302 9.13999L3.64602 9.21999C3.26502 9.32499 3.26502 10.035 3.64602 10.14C4.00824 10.2411 4.3677 10.3518 4.72402 10.472C5.77302 10.832 6.83202 11.312 7.44002 11.92C8.04702 12.528 8.52902 13.587 8.88702 14.635C8.97798 14.9002 9.06234 15.1676 9.14002 15.437L9.22002 15.714C9.32502 16.095 10.035 16.095 10.14 15.714C10.2228 15.4189 10.3115 15.1255 10.406 14.834C10.4279 14.7675 10.4503 14.7012 10.473 14.635C10.831 13.587 11.313 12.528 11.92 11.92C12.528 11.313 13.587 10.831 14.636 10.473C14.9005 10.3815 15.1672 10.2968 15.436 10.219L15.714 10.14C16.095 10.035 16.095 9.32499 15.714 9.21999C15.3515 9.1186 14.9917 9.00756 14.635 8.88699C13.587 8.52899 12.528 8.04699 11.92 7.43999C11.313 6.83199 10.831 5.77299 10.473 4.72399C10.3815 4.4592 10.2968 4.19212 10.219 3.92299C10.1921 3.83082 10.1658 3.73849 10.14 3.64599C10.035 3.26499 9.32502 3.26499 9.22002 3.64599C9.11862 4.00822 9.00758 4.36768 8.88702 4.72399Z" fill="black" style="fill:black;fill-opacity:1;"/>
<path d="M3.53002 0.27499C3.50317 0.195214 3.45196 0.125878 3.3836 0.0767605C3.31524 0.0276426 3.23319 0.0012207 3.14902 0.0012207C3.06485 0.0012207 2.9828 0.0276426 2.91444 0.0767605C2.84608 0.125878 2.79487 0.195214 2.76802 0.27499L2.46302 1.19199C2.26302 1.79199 1.79202 2.26199 1.19202 2.46199L0.275021 2.76799C0.194884 2.79461 0.125166 2.84579 0.0757563 2.91427C0.0263469 2.98275 -0.000244141 3.06505 -0.000244141 3.14949C-0.000244141 3.23393 0.0263469 3.31623 0.0757563 3.38471C0.125166 3.45319 0.194884 3.50437 0.275021 3.53099L1.19202 3.83699C1.79202 4.03699 2.26202 4.50699 2.46202 5.10699L2.76802 6.02499C2.89102 6.39099 3.40802 6.39099 3.53102 6.02499L3.83702 5.10699C4.03702 4.50699 4.50702 4.03699 5.10702 3.83699L6.02502 3.53099C6.10516 3.50437 6.17488 3.45319 6.22429 3.38471C6.27369 3.31623 6.30029 3.23393 6.30029 3.14949C6.30029 3.06505 6.27369 2.98275 6.22429 2.91427C6.17488 2.84579 6.10516 2.79461 6.02502 2.76799L5.10702 2.46299C4.50702 2.26299 4.03702 1.79199 3.83702 1.19199L3.53002 0.27499Z" fill="black" style="fill:black;fill-opacity:1;"/>
</svg>
