<svg width="16" height="16" viewBox="0 0 16 16" fill="none" xmlns="http://www.w3.org/2000/svg">
<path d="M7.29357 1.60156H8.70637C9.58009 1.60156 10.2725 1.60155 10.8306 1.64715C11.4013 1.69378 11.8842 1.79107 12.3251 2.01574C13.0401 2.38005 13.6215 2.96138 13.9858 3.67639C14.2105 4.11733 14.3077 4.60023 14.3544 5.17093C14.4 5.72904 14.4 6.42146 14.4 7.2952L14.4 8.71141C14.4 9.5851 14.4 10.2775 14.3544 10.8356C14.3078 11.4063 14.2105 11.8892 13.9858 12.3301C13.6215 13.0452 13.0402 13.6265 12.3252 13.9908C11.8842 14.2155 11.4013 14.3128 10.8306 14.3594C10.2725 14.405 9.58011 14.405 8.7064 14.405H7.29356C6.41985 14.405 5.72745 14.405 5.16936 14.3594C4.59864 14.3128 4.11574 14.2155 3.6748 13.9908C2.95979 13.6265 2.37846 13.0452 2.01414 12.3301C1.78947 11.8892 1.69219 11.4063 1.64556 10.8356C1.59996 10.2775 1.59996 9.5851 1.59997 8.71138V7.29516C1.59996 6.42145 1.59996 5.72905 1.64556 5.17095C1.69219 4.60024 1.78947 4.11734 2.01414 3.6764C2.37846 2.96138 2.95979 2.38006 3.6748 2.01574C4.11574 1.79107 4.59864 1.69378 5.16936 1.64715C5.72745 1.60155 6.41985 1.60156 7.29357 1.60156ZM5.26707 2.84317C4.77057 2.88373 4.46317 2.96084 4.21959 3.08495C3.73037 3.33422 3.33262 3.73197 3.08335 4.22119C2.95924 4.46477 2.88214 4.77217 2.84157 5.26867C2.80043 5.77217 2.79997 6.41558 2.79997 7.32156V8.68498C2.79997 9.59096 2.80043 10.2344 2.84157 10.7379C2.88214 11.2344 2.95924 11.5418 3.08335 11.7854C3.33262 12.2746 3.73037 12.6723 4.21959 12.9216C4.46317 13.0457 4.77057 13.1228 5.26707 13.1634C5.77058 13.2045 6.41399 13.205 7.31997 13.205H8.67998C9.58597 13.205 10.2294 13.2045 10.7329 13.1634C11.2294 13.1228 11.5368 13.0457 11.7804 12.9216C12.2696 12.6723 12.6673 12.2746 12.9166 11.7853C13.0407 11.5418 13.1178 11.2344 13.1584 10.7379C13.1995 10.2344 13.2 9.59095 13.2 8.68496L13.2 7.32154C13.2 6.41556 13.1995 5.77216 13.1584 5.26866C13.1178 4.77216 13.0407 4.46476 12.9166 4.22118C12.6673 3.73196 12.2696 3.33421 11.7803 3.08494C11.5368 2.96084 11.2294 2.88373 10.7329 2.84317C10.2294 2.80203 9.58595 2.80156 8.67997 2.80156H7.31997C6.41398 2.80156 5.77058 2.80203 5.26707 2.84317Z" fill="black" style="fill:black;fill-opacity:1;"/>
<path d="M10.6242 6.179C10.8586 6.41332 10.8586 6.79322 10.6242 7.02753L7.62426 10.0275C7.38995 10.2618 7.01005 10.2618 6.77574 10.0275L5.37574 8.62751C5.14142 8.39319 5.14142 8.01335 5.37574 7.779C5.61005 7.54469 5.98995 7.54469 6.22426 7.779L7.2 8.75471L9.77576 6.179C10.0101 5.94469 10.3899 5.94469 10.6242 6.179Z" fill="black" style="fill:black;fill-opacity:1;"/>
</svg>
