<svg width="16" height="16" viewBox="0 0 16 16" fill="none" xmlns="http://www.w3.org/2000/svg">
<path d="M11.9776 6.224C11.8716 6.11026 11.8139 5.95982 11.8167 5.80438C11.8194 5.64894 11.8824 5.50063 11.9923 5.3907C12.1022 5.28077 12.2505 5.2178 12.406 5.21506C12.5614 5.21232 12.7119 5.27002 12.8256 5.376L15.0272 7.5768C15.0829 7.63252 15.1272 7.69868 15.1574 7.7715C15.1875 7.84432 15.2031 7.92237 15.2031 8.0012C15.2031 8.08002 15.1875 8.15808 15.1574 8.2309C15.1272 8.30372 15.0829 8.36988 15.0272 8.4256L12.8256 10.6248C12.7129 10.7373 12.5602 10.8003 12.401 10.8002C12.2418 10.8 12.0892 10.7367 11.9768 10.624C11.8643 10.5113 11.8013 10.3586 11.8014 10.1994C11.8015 10.0403 11.8649 9.88765 11.9776 9.7752L13.1544 8.6H9.80159C9.64246 8.6 9.48985 8.53678 9.37733 8.42426C9.26481 8.31174 9.20159 8.15913 9.20159 8C9.20159 7.84087 9.26481 7.68826 9.37733 7.57574C9.48985 7.46321 9.64246 7.4 9.80159 7.4H13.1536L11.9776 6.224ZM4.02239 6.224C4.12838 6.11026 4.18608 5.95982 4.18333 5.80438C4.18059 5.64894 4.11762 5.50063 4.00769 5.3907C3.89776 5.28077 3.74945 5.2178 3.59401 5.21506C3.43857 5.21232 3.28813 5.27002 3.17439 5.376L0.972793 7.576C0.917037 7.63172 0.872807 7.69788 0.84263 7.7707C0.812453 7.84352 0.796921 7.92157 0.796921 8.0004C0.796921 8.07922 0.812453 8.15728 0.84263 8.2301C0.872807 8.30292 0.917037 8.36908 0.972793 8.4248L3.17439 10.624C3.23018 10.6797 3.29638 10.7238 3.36923 10.7539C3.44208 10.784 3.52014 10.7995 3.59896 10.7994C3.67778 10.7993 3.75581 10.7837 3.8286 10.7535C3.90139 10.7233 3.96751 10.679 4.02319 10.6232C4.07887 10.5674 4.12302 10.5012 4.15311 10.4284C4.18321 10.3555 4.19866 10.2775 4.19859 10.1986C4.19851 10.1198 4.18291 10.0418 4.15268 9.96899C4.12245 9.8962 4.07818 9.83008 4.02239 9.7744L2.84559 8.6H6.19839C6.35752 8.6 6.51013 8.53678 6.62266 8.42426C6.73518 8.31174 6.79839 8.15913 6.79839 8C6.79839 7.84087 6.73518 7.68826 6.62266 7.57574C6.51013 7.46321 6.35752 7.4 6.19839 7.4H2.84639L4.02239 6.224Z" fill="black" style="fill:black;fill-opacity:1;"/>
</svg>
